HIERARCHY
ROOT reference
{
  OFFSET 0 0 0
  CHANNELS 6 Xposition Yposition Zposition Zrotation Xrotation Yrotation
  JOINT Hips
  {
    OFFSET 27.3708 87.8465 39.051
    CHANNELS 6 Xposition Yposition Zposition Zrotation Xrotation Yrotation
    JOINT Spine
    {
      OFFSET 0 7.57377 0
      CHANNELS 6 Xposition Yposition Zposition Zrotation Xrotation Yrotation
      JOINT Spine1
      {
        OFFSET 0 21.6353 0
        CHANNELS 6 Xposition Yposition Zposition Zrotation Xrotation Yrotation
        JOINT Neck
        {
          OFFSET 0 21.5464 1.95876
          CHANNELS 6 Xposition Yposition Zposition Zrotation Xrotation Yrotation
          JOINT Head
          {
            OFFSET 0 12.9308 -1.84726
            CHANNELS 6 Xposition Yposition Zposition Zrotation Xrotation Yrotation
            End Site
            {
              OFFSET 0 23.0907 0
            }
          }
        }
        JOINT LeftShoulder
        {
          OFFSET 3.70822 19.5981 -0.368577
          CHANNELS 6 Xposition Yposition Zposition Zrotation Xrotation Yrotation
          JOINT LeftArm
          {
            OFFSET 11.1726 0 0
            CHANNELS 6 Xposition Yposition Zposition Zrotation Xrotation Yrotation
            JOINT LeftForeArm
            {
              OFFSET 28.6421 0 0
              CHANNELS 6 Xposition Yposition Zposition Zrotation Xrotation Yrotation
              JOINT LeftHand
              {
                OFFSET 23.9346 0 0
                CHANNELS 6 Xposition Yposition Zposition Zrotation Xrotation Yrotation
                End Site
                {
                  OFFSET 13.8545 0 0
                }
              }
            }
          }
        }
        JOINT RightShoulder
        {
          OFFSET -3.63664 19.5981 -0.368577
          CHANNELS 6 Xposition Yposition Zposition Zrotation Xrotation Yrotation
          JOINT RightArm
          {
            OFFSET -11.1726 0 0
            CHANNELS 6 Xposition Yposition Zposition Zrotation Xrotation Yrotation
            JOINT RightForeArm
            {
              OFFSET -28.6421 0 0
              CHANNELS 6 Xposition Yposition Zposition Zrotation Xrotation Yrotation
              JOINT RightHand
              {
                OFFSET -23.9346 0 0
                CHANNELS 6 Xposition Yposition Zposition Zrotation Xrotation Yrotation
                End Site
                {
                  OFFSET -13.8545 0 0
                }
              }
            }
          }
        }
      }
    }
    JOINT LeftUpLeg
    {
      OFFSET 9.2363 0 0
      CHANNELS 6 Xposition Yposition Zposition Zrotation Xrotation Yrotation
      JOINT LeftLeg
      {
        OFFSET 0 -40.7061 0
        CHANNELS 6 Xposition Yposition Zposition Zrotation Xrotation Yrotation
        JOINT LeftFoot
        {
          OFFSET 0 -40.9975 0
          CHANNELS 6 Xposition Yposition Zposition Zrotation Xrotation Yrotation
          JOINT LeftToeBase
          {
            OFFSET 0 -6.00359 13.8545
            CHANNELS 6 Xposition Yposition Zposition Zrotation Xrotation Yrotation
            End Site
            {
              OFFSET 0 0 3.69452
            }
          }
        }
      }
    }
    JOINT RightUpLeg
    {
      OFFSET -9.2363 0 0
      CHANNELS 6 Xposition Yposition Zposition Zrotation Xrotation Yrotation
      JOINT RightLeg
      {
        OFFSET 0 -40.7061 0
        CHANNELS 6 Xposition Yposition Zposition Zrotation Xrotation Yrotation
        JOINT RightFoot
        {
          OFFSET 0 -40.9975 0
          CHANNELS 6 Xposition Yposition Zposition Zrotation Xrotation Yrotation
          JOINT RightToeBase
          {
            OFFSET 0 -6.00359 13.8545
            CHANNELS 6 Xposition Yposition Zposition Zrotation Xrotation Yrotation
            End Site
            {
              OFFSET 0 0 3.69452
            }
          }
        }
      }
    }
  }
}
MOTION
Frames:	11
Frame Time:	0.004
0 0 0 0 0 -0 -19.7231 81.5539 -168.351 1.63616 3.823 15.0369 0 7.57377 -2.84217e-014 -4.10438 -5.53019 1.20958 0 21.6353 0 -0.797739 -5.12515 1.37216 0 21.5464 1.95876 -8.49126 12.5981 1.24233 -7.10543e-015 12.9308 -1.84726 7.77236 16.509 1.56799 3.70822 19.5981 -0.368577 14.4804 2.93161 -9.51462 11.1726 0 0 -23.6164 -3.61806 3.88305 28.6421 -2.84217e-014 0 1.99699 -4.99648 -0.226593 23.9346 2.84217e-014 2.84217e-014 22.0204 -6.00693 -5.23414 -3.63664 19.5981 -0.368577 -18.4779 -2.85484 -4.86167 -11.1726 0 0 21.2837 -0.755645 9.86772 -28.6421 2.84217e-014 0 -0.82804 4.20536 -5.29514 -23.9346 2.84217e-014 0 -18.3073 5.1184 -5.919 9.2363 0 0 -2.80375 -5.73974 -3.66135 0 -40.7061 0 1.41752 8.18946 -2.98732 1.77636e-015 -40.9975 0 1.77403 -15.2066 -10.0947 -1.77636e-015 -6.00359 13.8545 -6.4605e-016 0 1.98785e-016 -9.2363 0 0 0.033714 0.991398 0.32881 0 -40.7061 0 4.27719 4.0055 2.05846 0 -40.9975 0 -20.7297 -14.8043 -16.513 -3.55271e-015 -6.00359 13.8545 -1.49089e-015 1.59028e-015 -3.97569e-016 
0 0 0 0 0 -0 -19.7212 81.5577 -168.354 1.66598 3.82622 14.9927 -3.55271e-015 7.57377 -2.84217e-014 -4.11777 -5.52023 1.24166 -3.55271e-015 21.6353 2.84217e-014 -0.803046 -5.12521 1.40432 -3.55271e-015 21.5464 1.95876 -8.50238 12.6208 1.25083 0 12.9308 -1.84726 7.76552 16.4873 1.57696 3.70822 19.5981 -0.368577 14.4816 2.93263 -9.50463 11.1726 -2.84217e-014 0 -23.6085 -3.71421 3.94768 28.6421 0 0 1.98894 -4.95048 -0.222212 23.9346 0 0 22.0288 -5.96153 -5.23429 -3.63664 19.5981 -0.368577 -18.451 -2.85955 -4.84197 -11.1726 -2.84217e-014 0 21.2886 -0.595429 10.0486 -28.6421 0 -2.84217e-014 -0.798098 4.29994 -5.36524 -23.9346 -2.84217e-014 -2.84217e-014 -18.2557 5.2088 -5.90521 9.2363 -1.42109e-014 0 -2.85372 -5.79862 -3.71685 7.10543e-015 -40.7061 0 1.44873 8.30801 -2.86197 1.77636e-015 -40.9975 0 1.59492 -15.1502 -10.1678 0 -6.00359 13.8545 2.98177e-016 0 1.98785e-016 -9.2363 1.42109e-014 0 0.00184322 0.970925 0.314052 -3.55271e-015 -40.7061 0 4.28171 4.0487 2.11872 0 -40.9975 0 -20.7503 -14.8146 -16.5426 -5.32907e-015 -6.00359 13.8545 1.19271e-015 1.59028e-015 -0 
0 0 0 0 0 -0 -19.7198 81.5609 -168.361 1.69749 3.82932 14.9468 3.55271e-015 7.57377 2.84217e-014 -4.13 -5.50415 1.27649 7.10543e-015 21.6353 0 -0.813705 -5.1241 1.43873 0 21.5464 1.95876 -8.50228 12.6492 1.2604 7.10543e-015 12.9308 -1.84726 7.73931 16.4526 1.58741 3.70822 19.5981 -0.368577 14.4859 2.95141 -9.48791 11.1726 2.84217e-014 -2.84217e-014 -23.6005 -3.86994 4.01404 28.6421 -2.84217e-014 2.84217e-014 1.99137 -4.93211 -0.213231 23.9346 -2.84217e-014 0 22.0062 -5.95177 -5.28331 -3.63664 19.5981 -0.368577 -18.416 -2.85241 -4.81353 -11.1726 0 -2.84217e-014 21.3041 -0.470382 10.2704 -28.6421 0 -2.84217e-014 -0.7277 4.42524 -5.37518 -23.9346 0 0 -18.336 5.3501 -5.95926 9.2363 1.42109e-014 0 -2.91266 -5.887 -3.7706 3.55271e-015 -40.7061 0 1.49927 8.47642 -2.69498 0 -40.9975 0 1.48239 -15.1534 -10.2916 0 -6.00359 13.8545 -3.47873e-016 0 1.98785e-016 -9.2363 1.42109e-014 0 -0.0290333 0.94447 0.289026 0 -40.7061 0 4.28718 4.09383 2.17302 3.55271e-015 -40.9975 -2.84217e-014 -20.8418 -14.8149 -16.5773 -1.77636e-015 -6.00359 13.8545 -1.49089e-015 1.59028e-015 -7.95139e-016 
0 0 0 0 0 -0 -19.7187 81.5637 -168.367 1.73073 3.8316 14.8895 -3.55271e-015 7.57377 0 -4.13332 -5.49116 1.31926 0 21.6353 0 -0.835801 -5.10911 1.48029 0 21.5464 1.95876 -8.50781 12.6715 1.26123 0 12.9308 -1.84726 7.72465 16.4053 1.58012 3.70822 19.5981 -0.368577 14.4877 2.96176 -9.47134 11.1726 0 -2.84217e-014 -23.5925 -4.00478 4.07929 28.6421 0 -2.84217e-014 1.98104 -4.87516 -0.20387 23.9346 0 0 21.9363 -5.895 -5.30005 -3.63664 19.5981 -0.368577 -18.3853 -2.86418 -4.79537 -11.1726 2.84217e-014 -2.84217e-014 21.3183 -0.223991 10.5059 -28.6421 0 2.84217e-014 -0.641587 4.55346 -5.4688 -23.9346 -2.84217e-014 2.84217e-014 -18.4272 5.47581 -5.89339 9.2363 1.42109e-014 0 -2.97286 -5.96682 -3.82824 0 -40.7061 2.84217e-014 1.55133 8.65143 -2.727 0 -40.9975 -2.84217e-014 1.44994 -15.1671 -10.1942 0 -6.00359 13.8545 -2.20695e-032 3.18055e-015 3.97569e-016 -9.2363 0 0 -0.06487 0.920728 0.254814 1.06581e-014 -40.7061 0 4.29188 4.14523 2.27894 0 -40.9975 -2.84217e-014 -20.9243 -14.8086 -16.6193 0 -6.00359 13.8545 2.08724e-015 0 -3.97569e-016 
0 0 0 0 0 -0 -19.7176 81.5669 -168.375 1.76132 3.82815 14.8338 -3.55271e-015 7.57377 0 -4.14117 -5.46882 1.35932 -3.55271e-015 21.6353 -2.84217e-014 -0.840389 -5.0968 1.51981 -1.06581e-014 21.5464 1.95876 -8.51647 12.6783 1.26064 -7.10543e-015 12.9308 -1.84726 7.70055 16.3891 1.5849 3.70822 19.5981 -0.368577 14.4824 2.97123 -9.45051 11.1726 -2.84217e-014 0 -23.5874 -4.1838 4.16275 28.6421 0 0 1.97439 -4.77836 -0.214837 23.9346 0 2.84217e-014 21.8535 -5.79375 -5.29753 -3.63664 19.5981 -0.368577 -18.3641 -2.85116 -4.75818 -11.1726 2.84217e-014 0 21.3338 0.0634202 10.7538 -28.6421 2.84217e-014 0 -0.579639 4.63189 -5.54855 -23.9346 0 -2.84217e-014 -18.453 5.54769 -5.82964 9.2363 0 2.84217e-014 -3.03248 -6.06125 -3.89409 -7.10543e-015 -40.7061 0 1.60653 8.84524 -2.52188 0 -40.9975 2.84217e-014 1.18899 -15.1166 -10.3789 -1.77636e-015 -6.00359 13.8545 -7.95139e-016 0 3.97569e-016 -9.2363 2.84217e-014 -2.84217e-014 -0.0878926 0.894943 0.198759 3.55271e-015 -40.7061 0 4.28006 4.21126 2.4188 0 -40.9975 2.84217e-014 -20.9519 -14.8146 -16.6847 1.77636e-015 -6.00359 13.8545 -7.95139e-016 1.59028e-015 -1.19271e-015 
0 0 0 0 0 -0 -19.7165 81.5695 -168.381 1.78932 3.81575 14.7794 1.06581e-014 7.57377 0 -4.14202 -5.44592 1.39993 0 21.6353 0 -0.846735 -5.0747 1.55947 3.55271e-015 21.5464 1.95876 -8.55688 12.6726 1.25946 -7.10543e-015 12.9308 -1.84726 7.73173 16.3989 1.59324 3.70822 19.5981 -0.368577 14.4796 2.98735 -9.42978 11.1726 0 -2.84217e-014 -23.5865 -4.36382 4.23516 28.6421 0 0 1.9825 -4.75544 -0.216398 23.9346 2.84217e-014 2.84217e-014 21.8859 -5.77484 -5.31036 -3.63664 19.5981 -0.368577 -18.3407 -2.84191 -4.71951 -11.1726 -2.84217e-014 -2.84217e-014 21.3384 0.343794 10.9875 -28.6421 -2.84217e-014 0 -0.540503 4.72579 -5.57285 -23.9346 0 0 -18.3089 5.63398 -5.81881 9.2363 0 0 -3.08992 -6.14801 -3.97842 0 -40.7061 0 1.66201 9.06198 -2.51621 1.77636e-015 -40.9975 0 1.06272 -15.1127 -10.2891 0 -6.00359 13.8545 -4.96962e-017 3.18055e-015 -5.96354e-016 -9.2363 0 2.84217e-014 -0.109613 0.88394 0.160146 3.55271e-015 -40.7061 0 4.28114 4.26403 2.52914 0 -40.9975 -2.84217e-014 -20.9895 -14.8108 -16.7531 1.77636e-015 -6.00359 13.8545 1.59028e-015 0 3.97569e-016 
0 0 0 0 0 -0 -19.7152 81.5697 -168.388 1.81894 3.80861 14.7186 0 7.57377 0 -4.13955 -5.4261 1.44681 0 21.6353 -2.84217e-014 -0.850488 -5.05067 1.60602 0 21.5464 1.95876 -8.56174 12.6683 1.25816 -7.10543e-015 12.9308 -1.84726 7.7075 16.3985 1.59539 3.70822 19.5981 -0.368577 14.4749 3.00724 -9.41039 11.1726 2.84217e-014 -2.84217e-014 -23.5715 -4.57833 4.29778 28.6421 0 0 1.94212 -4.64485 -0.211758 23.9346 -2.84217e-014 -2.84217e-014 21.9788 -5.67248 -5.32799 -3.63664 19.5981 -0.368577 -18.3066 -2.85893 -4.6815 -11.1726 2.84217e-014 0 21.3426 0.516528 11.2153 -28.6421 2.84217e-014 2.84217e-014 -0.459041 4.83111 -5.62414 -23.9346 0 0 -18.4437 5.75508 -5.85069 9.2363 0 -2.84217e-014 -3.15575 -6.24769 -4.02676 7.10543e-015 -40.7061 0 1.73086 9.28082 -2.44143 -5.32907e-015 -40.9975 2.84217e-014 0.914943 -15.1127 -10.3215 0 -6.00359 13.8545 3.97569e-016 -1.59028e-015 3.97569e-016 -9.2363 0 -2.84217e-014 -0.132686 0.86536 0.104971 7.10543e-015 -40.7061 0 4.27095 4.31523 2.6478 -7.10543e-015 -40.9975 0 -20.9383 -14.8262 -16.78 -1.77636e-015 -6.00359 13.8545 -1.39149e-015 0 3.97569e-016 
0 0 0 0 0 -0 -19.7136 81.5697 -168.395 1.84523 3.78772 14.6615 0 7.57377 0 -4.13708 -5.39663 1.49519 0 21.6353 0 -0.872055 -5.00944 1.65221 7.10543e-015 21.5464 1.95876 -8.54676 12.6441 1.25708 0 12.9308 -1.84726 7.66862 16.4014 1.59537 3.70822 19.5981 -0.368577 14.4867 3.02533 -9.38129 11.1726 0 0 -23.5743 -4.76051 4.34603 28.6421 2.84217e-014 -2.84217e-014 1.96125 -4.52809 -0.204935 23.9346 0 -2.84217e-014 21.7917 -5.56279 -5.41044 -3.63664 19.5981 -0.368577 -18.2548 -2.84462 -4.65001 -11.1726 0 -2.84217e-014 21.2777 0.424744 11.4466 -28.6421 0 0 -0.167343 4.99944 -5.59526 -23.9346 0 0 -18.6489 5.92766 -5.72596 9.2363 1.42109e-014 -2.84217e-014 -3.21688 -6.35189 -4.05231 3.55271e-015 -40.7061 0 1.80841 9.52369 -2.26654 3.55271e-015 -40.9975 2.84217e-014 0.717524 -15.0979 -10.5083 0 -6.00359 13.8545 3.47873e-016 0 -0 -9.2363 0 0 -0.14728 0.863541 0.0703567 -3.55271e-015 -40.7061 0 4.26538 4.36064 2.67538 0 -40.9975 2.84217e-014 -21.0395 -14.8458 -16.7801 -1.77636e-015 -6.00359 13.8545 -2.20695e-032 -1.59028e-015 -7.95139e-016 
0 0 0 0 0 -0 -19.7084 81.5694 -168.399 1.8835 3.74861 14.6007 0 7.57377 -2.84217e-014 -4.13378 -5.35626 1.54605 -3.55271e-015 21.6353 0 -0.889933 -4.95522 1.70098 0 21.5464 1.95876 -8.56781 12.6205 1.25824 7.10543e-015 12.9308 -1.84726 7.67829 16.4007 1.59353 3.70822 19.5981 -0.368577 14.4902 3.02074 -9.36106 11.1726 0 0 -23.5741 -4.93988 4.42205 28.6421 0 -2.84217e-014 1.93246 -4.55909 -0.227407 23.9346 0 0 21.9459 -5.59722 -5.39119 -3.63664 19.5981 -0.368577 -18.2148 -2.84601 -4.61687 -11.1726 0 0 21.2698 0.783639 11.6904 -28.6421 -2.84217e-014 0 -0.147542 5.01701 -5.59569 -23.9346 0 0 -18.6062 5.94855 -5.75372 9.2363 1.42109e-014 0 -3.28816 -6.42487 -4.12535 -3.55271e-015 -40.7061 0 1.88156 9.77282 -2.28579 0 -40.9975 0 0.592868 -15.1151 -10.4238 0 -6.00359 13.8545 -6.95746e-016 3.18055e-015 -0 -9.2363 0 0 -0.179133 0.890693 0.0355367 7.10543e-015 -40.7061 2.84217e-014 4.26665 4.39283 2.7747 -3.55271e-015 -40.9975 0 -21.107 -14.8554 -16.8143 1.77636e-015 -6.00359 13.8545 -1.78906e-015 -3.18055e-015 -3.97569e-016 
0 0 0 0 0 -0 -19.7056 81.569 -168.403 1.9117 3.71344 14.5371 -7.10543e-015 7.57377 -2.84217e-014 -4.12591 -5.31883 1.59963 3.55271e-015 21.6353 0 -0.889538 -4.91223 1.75322 1.06581e-014 21.5464 1.95876 -8.62928 12.6186 1.24658 7.10543e-015 12.9308 -1.84726 7.7198 16.3896 1.58404 3.70822 19.5981 -0.368577 14.4732 3.0366 -9.34704 11.1726 0 2.84217e-014 -23.5714 -5.08602 4.48723 28.6421 0 0 1.93055 -4.55093 -0.217357 23.9346 0 0 21.9676 -5.59593 -5.42018 -3.63664 19.5981 -0.368577 -18.1898 -2.83322 -4.55822 -11.1726 0 0 21.2717 1.121 11.9019 -28.6421 0 -2.84217e-014 -0.154079 5.00794 -5.60562 -23.9346 0 0 -18.6213 5.94636 -5.79278 9.2363 1.42109e-014 0 -3.34814 -6.50975 -4.14843 0 -40.7061 0 1.96168 10.0266 -2.27063 1.77636e-015 -40.9975 0 0.442997 -15.1221 -10.4118 0 -6.00359 13.8545 2.48481e-016 3.18055e-015 3.97569e-016 -9.2363 0 0 -0.19151 0.909895 -0.0197496 -3.55271e-015 -40.7061 0 4.25719 4.42167 2.84714 -7.10543e-015 -40.9975 0 -21.1714 -14.8567 -16.815 0 -6.00359 13.8545 1.09332e-015 1.59028e-015 -0 
0 0 0 0 0 -0 -19.7042 81.5685 -168.41 1.93185 3.6879 14.4756 0 7.57377 0 -4.10898 -5.29154 1.65349 3.55271e-015 21.6353 0 -0.899691 -4.86004 1.80527 0 21.5464 1.95876 -8.65817 12.589 1.23524 0 12.9308 -1.84726 7.72698 16.4002 1.57486 3.70822 19.5981 -0.368577 14.4689 3.06054 -9.32499 11.1726 0 -2.84217e-014 -23.5861 -5.19029 4.539 28.6421 0 0 1.94769 -4.56651 -0.210269 23.9346 0 0 21.9134 -5.61153 -5.43364 -3.63664 19.5981 -0.368577 -18.1605 -2.8446 -4.50889 -11.1726 0 0 21.2811 1.39321 12.1317 -28.6421 2.84217e-014 0 -0.114918 4.98539 -5.59291 -23.9346 0 0 -18.7659 5.91865 -5.70441 9.2363 0 -2.84217e-014 -3.4011 -6.6145 -4.18292 -3.55271e-015 -40.7061 2.84217e-014 2.03919 10.2878 -2.22608 -5.32907e-015 -40.9975 2.84217e-014 0.242718 -15.1108 -10.4691 0 -6.00359 13.8545 -5.46658e-016 0 -0 -9.2363 0 0 -0.204589 0.919162 -0.0519673 3.55271e-015 -40.7061 -2.84217e-014 4.24788 4.45223 2.91041 -3.55271e-015 -40.9975 0 -21.1717 -14.8679 -16.8176 3.55271e-015 -6.00359 13.8545 -1.49089e-015 1.59028e-015 -7.95139e-016 
